<svg xmlns="http://www.w3.org/2000/svg" width="447.680" height="410.377" viewBox="0 0 118.44866 108.57892"><path fill="#fff" d="M74.584 64.147h38.428v40.107H74.584z"/><path fill="#fff" d="m21.66 36.254 7.952-16.512v-8.12h49.354v5.135h19.741l-32.745 69.02h-46.22l-5.841-6.81V44.42Z"/><path fill="silver" d="M9.87 39.483c-.78.875-1.315 1.176-.963 2.027-2.1 17.522-.082 44.516-.082 44.516-.31.154.234 2.441 1.045 2.811h9.871V69.096h29.613v-9.871H19.74v-9.87h9.871v-9.872c-.878-.152-.841-.59-1.698-.77-3.939-.264-8.5-.882-16.981-.06-.44.2-.619.576-1.062.83Zm9.871 39.484v9.87c.907 1.148.909 1.13 3.077 1.213 11.686.444 31.951-.326 43.929-.123 1.483.025 1.647-.776 2.348-1.09V69.096h-9.87v9.87zm29.613-39.484v9.871h9.87v-9.87c-.454-.127-1-.516-1.427-.686-2.04-.404-4.027-.09-7.34.136-.35.158-.718.34-1.103.55Zm29.612 0v9.871h-9.871v39.483h9.87V69.096h19.742c-.892-2.975 3.348-14.05 1.259-28.184-.083-.565-1.158-.854-1.259-1.429-.642-.081-.678-.54-1.312-.625-5.926-.221-12.194-1.049-17.576-.167-.35.137-.508.627-.853.792Z"/><path fill="#b2b2b4" d="M9.87 0v9.87c.503.107.477.36.933.389 3 .188 5.753.035 7.738.02.605-.003.639-.206 1.218-.216 16.296 2.496 42.677 2.912 66.99.624.645-.061 1.172-.002 2.368-.63 3.109.532 6.143.56 8.076.53.614-.192 1.09-.57 1.514-.717V0Zm88.837 9.87c-.284.587-.945.972-1.135 1.522.038 3.654 0 6.638.772 8.39l-.357.664c-.236 6.232-.081 12.334.07 18.437l.65.6c3.785 2.714 8.132 2.42 9.87 0V9.871Zm-88.836 0H0v29.613c2.932 1.236 5.695 2.002 9.87 0 .4-.154.51-.756.458-1.205 1.2-5.616.448-11.288.192-17.7-.066-.451-.277-.423-.65-.836.131-.302.43-.28.419-.595-.091-2.515.628-5.214.01-8.716-.04-.226-.338-.335-.429-.56Z"/><path fill="#a3a3a6" d="M0 39.483v49.354h9.87c.173-.45.552-.418.56-1.335.02-2.425.672-5.274.015-7.624-.158-.564-.465-.608-.574-.911L9.87 39.483Zm9.87 49.354v9.871h69.096v-9.87H19.682c-.483-.113-.556-.426-.993-.52-4.097-.87-6.614-.653-8.086-.151-.395.134-.346.503-.732.671Zm88.837-49.354v29.613h9.87V39.483Z"/><path fill="#70603b" d="M69.095 59.225v49.354h49.354V59.225Zm9.87 9.871h29.613v29.612H78.966Z"/><path fill="#bcbcbe" d="M9.87 9.87v9.872c2.794.331 3.163 2.279 9.871 0 2.298-3.29.303-6.58 0-9.871zm78.966 0c-2.366 4.544-.44 6.815 0 9.872 4.349 1.984 6.88.562 9.871 0V9.871Z"/><path fill="#cacaca" d="M19.741 9.87v9.872h-9.87v19.741h19.741v-9.87h9.87v-9.871h49.354V9.87Zm69.095 9.872v9.87h-9.87v9.871h19.741V19.742Zm-39.482 9.87v9.871h9.87v-9.87z"/><path fill="#ffe400" d="M78.966 69.096h9.87v9.87h-9.87z"/><path fill="#fffa00" d="M88.836 69.096v9.87h9.871v-9.87zm-9.87 19.741v9.871h9.87v-9.87z"/><path fill="#fffe00" d="M98.707 69.096h9.871v9.87h-9.87z"/><path fill="#ffec01" d="M98.707 78.967h9.871v9.87h-9.87z"/><path fill="#fffd00" d="M88.837 78.967h9.87v9.87h-9.87z"/><path fill="#fffc00" d="M78.966 78.967h9.87v9.87h-9.87z"/><path fill="#ffcb01" d="M98.707 88.837h9.871v9.871h-9.87z"/><path fill="#ffe701" d="M88.837 88.837h9.87v9.871h-9.87z"/><path fill="#afafb1" d="M9.87 78.967h9.871v9.871H9.87z"/></svg>